<?xml version="1.0" standalone="no"?>
<!DOCTYPE svg PUBLIC "-//W3C//DTD SVG 20010904//EN"
 "http://www.w3.org/TR/2001/REC-SVG-20010904/DTD/svg10.dtd">
<svg version="1.0" xmlns="http://www.w3.org/2000/svg"
 width="814.000000pt" height="814.000000pt" viewBox="0 0 814.000000 814.000000"
 preserveAspectRatio="xMidYMid meet">
<metadata>
Created by potrace 1.14, written by Peter Selinger 2001-2017
</metadata>
<g transform="translate(0.000000,814.000000) scale(0.100000,-0.100000)"
fill="#000000" stroke="none">
<path d="M3829 8125 c-2 -2 -43 -6 -89 -9 -47 -3 -98 -8 -115 -11 -16 -2 -52
-7 -80 -10 -27 -3 -63 -7 -80 -9 -16 -3 -50 -7 -75 -11 -25 -3 -51 -8 -59 -11
-8 -3 -30 -7 -50 -10 -133 -20 -468 -115 -648 -184 -43 -16 -81 -30 -85 -30
-5 0 -24 -9 -43 -20 -20 -11 -40 -20 -45 -20 -15 0 -104 -42 -111 -53 -3 -5
-9 -8 -13 -7 -3 0 -27 -8 -51 -19 -25 -11 -48 -20 -52 -20 -3 1 -9 -3 -12 -8
-3 -4 -28 -20 -56 -34 -96 -50 -170 -92 -173 -101 -2 -4 -9 -8 -15 -8 -6 0
-27 -10 -46 -23 -20 -13 -65 -42 -101 -65 -102 -66 -313 -223 -382 -284 -21
-18 -59 -51 -84 -73 -49 -42 -252 -243 -315 -311 -60 -66 -192 -226 -234 -284
-22 -30 -43 -56 -47 -58 -5 -2 -8 -10 -8 -18 0 -8 -4 -14 -9 -14 -5 0 -14 -13
-21 -30 -7 -16 -16 -30 -21 -30 -5 0 -15 -12 -22 -27 -6 -16 -14 -30 -17 -33
-10 -9 -77 -115 -101 -160 -13 -25 -27 -47 -30 -50 -4 -3 -23 -36 -42 -75 -20
-38 -43 -81 -51 -95 -68 -113 -255 -585 -281 -705 -1 -5 -7 -30 -14 -55 -8
-25 -14 -49 -16 -55 -1 -5 -5 -17 -8 -25 -5 -14 -19 -73 -32 -140 -25 -124
-36 -180 -40 -210 -3 -19 -6 -44 -9 -55 -7 -39 -23 -164 -33 -275 -8 -88 -8
-577 1 -670 12 -131 21 -203 36 -290 5 -30 12 -71 14 -90 3 -19 12 -66 21
-105 9 -38 18 -79 20 -90 3 -11 8 -33 12 -50 4 -16 7 -32 8 -35 1 -10 47 -175
53 -190 8 -22 13 -43 14 -57 1 -7 5 -13 9 -13 3 0 9 -12 12 -27 5 -29 49 -155
72 -208 7 -16 25 -59 40 -95 27 -67 185 -391 195 -400 9 -9 41 -65 47 -82 3
-10 9 -18 14 -18 5 0 9 -5 9 -11 0 -13 186 -293 206 -309 7 -7 14 -17 14 -23
0 -5 11 -20 25 -33 14 -13 25 -26 25 -30 0 -4 7 -14 15 -23 8 -9 31 -36 51
-61 80 -100 383 -420 399 -420 2 0 21 -17 43 -37 22 -21 50 -47 63 -58 57 -47
87 -71 113 -90 16 -11 33 -25 40 -31 15 -14 105 -80 189 -138 119 -83 338
-210 482 -280 77 -38 152 -74 166 -82 14 -7 29 -11 33 -7 3 3 6 1 6 -5 0 -7 8
-12 18 -12 10 0 22 -4 27 -8 9 -8 131 -56 145 -57 3 0 14 -6 25 -11 16 -9 42
-18 85 -29 3 0 41 -13 85 -27 76 -25 292 -84 345 -94 14 -3 57 -12 95 -19 39
-8 84 -17 100 -19 17 -2 50 -7 75 -11 25 -3 56 -8 69 -11 23 -5 151 -16 199
-17 12 -1 22 -4 22 -7 0 -8 584 -5 640 3 19 2 67 8 105 11 39 4 97 11 130 16
33 5 80 12 105 15 24 4 47 8 50 10 3 2 26 6 50 10 25 4 74 13 110 22 36 8 73
17 83 19 9 2 26 6 37 9 11 3 28 7 38 9 9 3 38 11 65 19 26 8 47 13 47 11 0 -3
9 0 21 6 11 6 28 13 37 15 20 4 109 33 137 44 43 18 220 85 225 86 10 1 360
171 400 195 8 5 44 26 80 47 150 88 194 115 200 123 3 4 25 19 49 35 25 15 49
31 55 36 6 5 43 33 82 62 39 29 78 60 88 70 10 9 20 17 24 17 4 0 23 15 43 33
19 17 62 55 94 82 81 69 277 265 355 355 36 41 67 77 70 80 3 3 30 37 60 75
30 39 57 72 60 75 15 13 110 151 110 159 0 5 4 11 9 13 18 7 170 257 251 413
58 111 172 363 186 410 4 13 53 145 61 165 3 8 7 20 9 25 1 6 19 66 39 135 20
69 38 133 40 143 2 10 6 26 9 35 3 9 7 29 10 45 3 15 7 35 10 45 3 9 7 28 10
42 3 14 10 51 16 82 6 31 13 70 15 85 2 15 7 46 10 68 10 63 13 86 19 145 3
30 8 75 11 100 3 25 8 107 10 183 2 76 6 141 9 145 3 4 1 14 -4 22 -5 8 -5 22
1 32 5 10 6 18 2 18 -10 0 -10 41 0 57 4 5 4 13 0 17 -4 3 -7 36 -9 74 -2 75
-13 217 -19 247 -2 11 -7 47 -10 80 -4 33 -11 82 -16 109 -5 27 -7 51 -4 54 2
3 0 12 -4 21 -5 9 -12 34 -15 56 -3 22 -11 60 -16 85 -6 25 -13 56 -16 70 -3
14 -14 59 -25 100 -11 41 -22 82 -24 90 -2 8 -4 16 -5 18 -2 1 -3 5 -4 10 -7
36 -31 109 -39 120 -5 6 -7 12 -4 12 4 0 -2 20 -13 45 -11 25 -17 45 -15 45 2
0 -3 17 -12 38 -32 76 -36 87 -38 97 -2 6 -12 30 -23 55 -11 25 -35 79 -53
120 -37 87 -145 299 -183 359 -14 22 -26 43 -26 46 0 19 -266 401 -339 485
-11 14 -31 36 -42 50 -158 188 -345 373 -529 524 -127 104 -118 97 -191 147
-35 24 -66 47 -69 50 -9 12 -204 135 -305 193 -112 65 -335 176 -353 176 -7 0
-12 5 -12 10 0 6 -7 10 -15 10 -8 0 -23 4 -33 10 -42 23 -390 150 -457 166 -5
2 -55 15 -110 29 -95 26 -159 41 -215 51 -14 2 -36 7 -50 10 -35 8 -71 15
-100 19 -49 7 -106 15 -145 19 -22 3 -40 5 -40 6 0 1 -20 4 -45 6 -25 2 -63 7
-85 10 -50 6 -581 15 -586 9z"/>
</g>
</svg>
